<svg width="30" height="30" viewBox="0 0 30 30" fill="none" xmlns="http://www.w3.org/2000/svg">
<path d="M21 15C21 15.875 20.625 16.75 20 17.375L11.875 25.625C11.5 26 10.875 26 10.5 25.625C10.125 25.25 10.125 24.625 10.5 24.25L18.625 16.125C19.25 15.5 19.25 14.5 18.625 14L15.375 10.75C15 10.375 15 9.75 15.375 9.375C15.75 9 16.375 9 16.75 9.375L20 12.625C20.625 13.25 21 14.125 21 15Z" fill="black"/>
<path d="M13.375 6.375C13.375 6.625 13.25 6.875 13.125 7C12.75 7.375 12.125 7.375 11.75 7L10.5 5.75C10.125 5.375 10.125 4.75 10.5 4.375C10.875 4 11.5 4 11.875 4.375L13.125 5.625C13.375 5.875 13.375 6.125 13.375 6.375Z" fill="black"/>
</svg>
