<svg width="193" height="21" viewBox="0 0 193 21" fill="none" xmlns="http://www.w3.org/2000/svg">
<path d="M9.63366 2C11.7457 2 13.5937 2.376 15.1777 3.128C16.7617 3.88 17.9937 4.928 18.8737 6.272C19.7697 7.616 20.2177 9.192 20.2177 11C20.2177 12.792 19.7697 14.368 18.8737 15.728C17.9937 17.072 16.7617 18.12 15.1777 18.872C13.5937 19.624 11.7457 20 9.63366 20H0.849656V2H9.63366ZM5.36166 18.152L3.15366 15.992H9.96966C11.1217 15.992 12.1217 15.784 12.9697 15.368C13.8177 14.952 14.4737 14.376 14.9377 13.64C15.4017 12.888 15.6337 12.008 15.6337 11C15.6337 9.976 15.4017 9.096 14.9377 8.36C14.4737 7.624 13.8177 7.048 12.9697 6.632C12.1217 6.216 11.1217 6.008 9.96966 6.008H3.15366L5.36166 3.848V18.152ZM34.954 20L34.354 15.032L35.002 13.16L34.354 11.312L34.954 6.32H39.586L38.746 13.16L39.586 20H34.954ZM36.058 13.16C35.818 14.616 35.362 15.888 34.69 16.976C34.018 18.048 33.17 18.888 32.146 19.496C31.122 20.088 29.97 20.384 28.69 20.384C27.346 20.384 26.162 20.08 25.138 19.472C24.13 18.864 23.338 18.024 22.762 16.952C22.186 15.864 21.898 14.6 21.898 13.16C21.898 11.72 22.186 10.464 22.762 9.392C23.338 8.304 24.13 7.456 25.138 6.848C26.162 6.24 27.346 5.936 28.69 5.936C29.97 5.936 31.122 6.24 32.146 6.848C33.17 7.44 34.018 8.272 34.69 9.344C35.378 10.416 35.834 11.688 36.058 13.16ZM26.41 13.16C26.41 13.896 26.562 14.552 26.866 15.128C27.17 15.688 27.586 16.136 28.114 16.472C28.658 16.792 29.282 16.952 29.986 16.952C30.69 16.952 31.354 16.792 31.978 16.472C32.618 16.136 33.178 15.688 33.658 15.128C34.138 14.552 34.498 13.896 34.738 13.16C34.498 12.424 34.138 11.776 33.658 11.216C33.178 10.64 32.618 10.192 31.978 9.872C31.354 9.536 30.69 9.368 29.986 9.368C29.282 9.368 28.658 9.536 28.114 9.872C27.586 10.192 27.17 10.64 26.866 11.216C26.562 11.776 26.41 12.424 26.41 13.16ZM41.4678 6.32H45.9078L46.7958 11.648V20H42.3318V10.976L41.4678 6.32ZM51.9078 5.936C53.2198 5.936 54.3318 6.2 55.2438 6.728C56.1718 7.24 56.8758 7.976 57.3558 8.936C57.8518 9.896 58.0998 11.04 58.0998 12.368V20H53.6358V13.04C53.6358 11.904 53.3558 11.048 52.7958 10.472C52.2358 9.88 51.4358 9.584 50.3958 9.584C49.6598 9.584 49.0198 9.744 48.4758 10.064C47.9478 10.368 47.5318 10.808 47.2278 11.384C46.9398 11.944 46.7958 12.616 46.7958 13.4L45.3798 12.656C45.5558 11.2 45.9478 9.976 46.5558 8.984C47.1798 7.992 47.9478 7.24 48.8598 6.728C49.7878 6.2 50.8038 5.936 51.9078 5.936ZM76.7795 14.312C76.6515 15.512 76.2035 16.568 75.4355 17.48C74.6835 18.392 73.7075 19.104 72.5075 19.616C71.3235 20.128 69.9875 20.384 68.4995 20.384C66.8515 20.384 65.3955 20.08 64.1315 19.472C62.8675 18.864 61.8835 18.016 61.1795 16.928C60.4755 15.84 60.1235 14.584 60.1235 13.16C60.1235 11.736 60.4755 10.48 61.1795 9.392C61.8835 8.304 62.8675 7.456 64.1315 6.848C65.3955 6.24 66.8515 5.936 68.4995 5.936C69.9875 5.936 71.3235 6.192 72.5075 6.704C73.7075 7.216 74.6835 7.928 75.4355 8.84C76.2035 9.736 76.6515 10.792 76.7795 12.008H72.3395C72.1635 11.128 71.7235 10.456 71.0195 9.992C70.3315 9.528 69.4915 9.296 68.4995 9.296C67.7155 9.296 67.0275 9.448 66.4355 9.752C65.8595 10.056 65.4115 10.496 65.0915 11.072C64.7715 11.648 64.6115 12.344 64.6115 13.16C64.6115 13.976 64.7715 14.672 65.0915 15.248C65.4115 15.824 65.8595 16.264 66.4355 16.568C67.0275 16.872 67.7155 17.024 68.4995 17.024C69.5075 17.024 70.3555 16.784 71.0435 16.304C71.7315 15.808 72.1635 15.144 72.3395 14.312H76.7795ZM86.6903 20.384C85.0583 20.384 83.5943 20.08 82.2983 19.472C81.0183 18.864 80.0103 18.016 79.2743 16.928C78.5383 15.84 78.1703 14.568 78.1703 13.112C78.1703 11.688 78.5223 10.44 79.2263 9.368C79.9303 8.296 80.8983 7.456 82.1303 6.848C83.3783 6.24 84.7863 5.936 86.3543 5.936C87.9543 5.936 89.3303 6.288 90.4823 6.992C91.6343 7.696 92.5223 8.688 93.1463 9.968C93.7703 11.248 94.0823 12.752 94.0823 14.48H81.7463V11.672H91.6343L90.0263 12.68C89.9783 11.928 89.7943 11.296 89.4743 10.784C89.1703 10.256 88.7623 9.856 88.2503 9.584C87.7383 9.296 87.1303 9.152 86.4263 9.152C85.6583 9.152 84.9943 9.304 84.4343 9.608C83.8743 9.912 83.4343 10.336 83.1143 10.88C82.8103 11.424 82.6583 12.056 82.6583 12.776C82.6583 13.688 82.8583 14.464 83.2583 15.104C83.6743 15.744 84.2663 16.232 85.0343 16.568C85.8183 16.904 86.7703 17.072 87.8903 17.072C88.9143 17.072 89.9383 16.936 90.9623 16.664C91.9863 16.376 92.9063 15.976 93.7223 15.464V18.368C92.7943 19.008 91.7303 19.504 90.5303 19.856C89.3463 20.208 88.0663 20.384 86.6903 20.384Z" fill="#AF2BBF"/>
<path d="M95.6575 14.12H100.242C100.322 14.664 100.57 15.144 100.986 15.56C101.402 15.976 101.954 16.296 102.642 16.52C103.346 16.744 104.162 16.856 105.09 16.856C106.418 16.856 107.458 16.672 108.21 16.304C108.978 15.936 109.362 15.416 109.362 14.744C109.362 14.232 109.138 13.84 108.69 13.568C108.258 13.28 107.442 13.072 106.242 12.944L102.762 12.584C100.346 12.344 98.5935 11.784 97.5055 10.904C96.4335 10.024 95.8975 8.824 95.8975 7.304C95.8975 6.104 96.2495 5.08 96.9535 4.232C97.6735 3.384 98.6735 2.736 99.9535 2.288C101.25 1.84 102.762 1.616 104.49 1.616C106.202 1.616 107.714 1.864 109.026 2.36C110.338 2.856 111.386 3.544 112.17 4.424C112.954 5.304 113.378 6.336 113.442 7.52H108.858C108.794 7.024 108.57 6.608 108.186 6.272C107.818 5.92 107.314 5.648 106.674 5.456C106.05 5.248 105.298 5.144 104.418 5.144C103.202 5.144 102.234 5.32 101.514 5.672C100.81 6.008 100.458 6.496 100.458 7.136C100.458 7.616 100.666 7.992 101.082 8.264C101.514 8.536 102.274 8.736 103.362 8.864L107.034 9.272C108.714 9.448 110.058 9.728 111.066 10.112C112.074 10.496 112.802 11.024 113.25 11.696C113.698 12.368 113.922 13.216 113.922 14.24C113.922 15.472 113.546 16.552 112.794 17.48C112.058 18.392 111.018 19.104 109.674 19.616C108.346 20.128 106.794 20.384 105.018 20.384C103.178 20.384 101.562 20.12 100.17 19.592C98.7935 19.064 97.7055 18.336 96.9055 17.408C96.1215 16.464 95.7055 15.368 95.6575 14.12ZM114.718 9.632V7.688L117.55 6.656L119.47 2.672H122.014V6.32H127.918V9.632H122.014V14.144C122.014 15.168 122.222 15.888 122.638 16.304C123.054 16.704 123.798 16.904 124.87 16.904C125.558 16.904 126.158 16.848 126.67 16.736C127.198 16.608 127.694 16.44 128.158 16.232V19.616C127.678 19.808 127.046 19.984 126.262 20.144C125.494 20.304 124.694 20.384 123.862 20.384C122.406 20.384 121.206 20.152 120.262 19.688C119.334 19.224 118.646 18.576 118.198 17.744C117.766 16.896 117.55 15.904 117.55 14.768V9.632H114.718ZM136.049 20.36C134.769 20.36 133.681 20.104 132.785 19.592C131.889 19.064 131.201 18.32 130.721 17.36C130.257 16.4 130.025 15.264 130.025 13.952V6.32H134.489V13.304C134.489 14.408 134.753 15.256 135.281 15.848C135.809 16.44 136.569 16.736 137.561 16.736C138.297 16.736 138.921 16.584 139.433 16.28C139.945 15.976 140.337 15.536 140.609 14.96C140.897 14.384 141.041 13.704 141.041 12.92L142.433 13.664C142.273 15.104 141.889 16.328 141.281 17.336C140.689 18.328 139.937 19.08 139.025 19.592C138.129 20.104 137.137 20.36 136.049 20.36ZM141.905 20L141.041 14.672V6.32H145.505V15.344L146.369 20H141.905ZM161.049 20L160.449 14.84L161.265 13.208L160.473 11.144L161.577 1.52H166.209L164.841 12.824L165.657 20H161.049ZM162.081 13.16C161.841 14.616 161.385 15.888 160.713 16.976C160.041 18.048 159.193 18.888 158.169 19.496C157.145 20.088 155.993 20.384 154.713 20.384C153.369 20.384 152.185 20.08 151.161 19.472C150.153 18.864 149.361 18.024 148.785 16.952C148.209 15.864 147.921 14.6 147.921 13.16C147.921 11.72 148.209 10.464 148.785 9.392C149.361 8.304 150.153 7.456 151.161 6.848C152.185 6.24 153.369 5.936 154.713 5.936C155.993 5.936 157.145 6.24 158.169 6.848C159.193 7.44 160.041 8.272 160.713 9.344C161.401 10.416 161.857 11.688 162.081 13.16ZM152.433 13.16C152.433 13.896 152.585 14.552 152.889 15.128C153.193 15.688 153.609 16.136 154.137 16.472C154.681 16.792 155.305 16.952 156.009 16.952C156.713 16.952 157.377 16.792 158.001 16.472C158.641 16.136 159.201 15.688 159.681 15.128C160.161 14.552 160.521 13.896 160.761 13.16C160.521 12.424 160.161 11.776 159.681 11.216C159.201 10.64 158.641 10.192 158.001 9.872C157.377 9.536 156.713 9.368 156.009 9.368C155.305 9.368 154.681 9.536 154.137 9.872C153.609 10.192 153.193 10.64 152.889 11.216C152.585 11.776 152.433 12.424 152.433 13.16ZM168.186 6.128L170.394 6.584L172.626 6.128V20H168.186V6.128ZM170.418 4.88C169.634 4.88 168.994 4.68 168.498 4.28C168.002 3.864 167.754 3.32 167.754 2.648C167.754 1.96 168.002 1.416 168.498 1.016C168.994 0.615999 169.634 0.415999 170.418 0.415999C171.218 0.415999 171.858 0.615999 172.338 1.016C172.818 1.416 173.058 1.96 173.058 2.648C173.058 3.32 172.818 3.864 172.338 4.28C171.858 4.68 171.218 4.88 170.418 4.88ZM183.467 20.384C181.739 20.384 180.227 20.08 178.931 19.472C177.635 18.864 176.627 18.016 175.907 16.928C175.187 15.84 174.827 14.584 174.827 13.16C174.827 11.72 175.187 10.464 175.907 9.392C176.627 8.304 177.635 7.456 178.931 6.848C180.243 6.24 181.755 5.936 183.467 5.936C185.195 5.936 186.707 6.24 188.003 6.848C189.315 7.456 190.331 8.304 191.051 9.392C191.771 10.464 192.131 11.72 192.131 13.16C192.131 14.6 191.771 15.864 191.051 16.952C190.331 18.024 189.315 18.864 188.003 19.472C186.707 20.08 185.195 20.384 183.467 20.384ZM183.467 17.024C184.347 17.024 185.091 16.872 185.699 16.568C186.323 16.248 186.795 15.8 187.115 15.224C187.451 14.648 187.619 13.96 187.619 13.16C187.619 12.36 187.451 11.672 187.115 11.096C186.795 10.52 186.323 10.08 185.699 9.776C185.091 9.456 184.347 9.296 183.467 9.296C182.619 9.296 181.883 9.456 181.259 9.776C180.635 10.08 180.155 10.52 179.819 11.096C179.483 11.672 179.315 12.36 179.315 13.16C179.315 13.96 179.483 14.648 179.819 15.224C180.155 15.8 180.635 16.248 181.259 16.568C181.883 16.872 182.619 17.024 183.467 17.024Z" fill="black"/>
</svg>
