<svg width="24" height="24" viewBox="0 0 24 24" fill="none" xmlns="http://www.w3.org/2000/svg">
<g id="Frame">
<rect width="24" height="24" rx="12" fill="#AF2BBF"/>
<path id="Vector" d="M18.4966 15.501L17.9361 17.9309C17.8573 18.2744 17.5554 18.5147 17.2017 18.5147C11.1191 18.5142 6.17188 13.5677 6.17188 7.48579C6.17188 7.1324 6.41222 6.83011 6.75581 6.75176L9.18604 6.1913C9.53996 6.10929 9.9016 6.29298 10.0487 6.6281L11.1702 9.24359C11.3013 9.55167 11.2129 9.9106 10.9537 10.1223L9.65569 11.1644C10.4749 12.833 11.8318 14.1896 13.5011 15.0092L14.5639 13.7124C14.7733 13.4525 15.135 13.3626 15.4432 13.496L18.059 14.6172C18.3737 14.7827 18.5786 15.1491 18.4966 15.501Z" fill="white"/>
</g>
</svg>
