<svg width="24" height="24" viewBox="0 0 24 24" fill="none" xmlns="http://www.w3.org/2000/svg">
<g id="Frame">
<rect width="24" height="24" rx="12" fill="#AF2BBF"/>
<path id="Vector" d="M17.1228 7.37376C16.8 7.09174 15.4934 6.19266 12.5804 6.18061C12.5804 6.18061 9.14621 5.98536 7.47361 7.44125C6.54326 8.32346 6.21535 9.61785 6.17976 11.2208C6.14418 12.8237 6.10096 15.8271 9.15383 16.6418H9.15638L9.15383 17.8856C9.15383 17.8856 9.1335 18.3893 9.48429 18.4906C9.90625 18.6159 10.1554 18.2327 10.5595 17.8205C10.7807 17.5939 11.0857 17.2613 11.317 17.0082C13.4065 17.1745 15.0105 16.7936 15.1935 16.7382C15.6154 16.608 18.0023 16.3188 18.3887 13.3154C18.7903 10.2156 18.1955 8.25838 17.1228 7.37376ZM17.4761 13.0888C17.1482 15.5957 15.2138 15.7548 14.8579 15.8632C14.7054 15.909 13.2947 16.2417 11.5229 16.1332C11.5229 16.1332 10.2011 17.6445 9.78932 18.0374C9.6546 18.1652 9.50716 18.1531 9.50971 17.9C9.50971 17.7337 9.51987 15.8343 9.51987 15.8343C9.51733 15.8343 9.51733 15.8343 9.51987 15.8343C6.93218 15.1546 7.0847 12.5971 7.11266 11.2593C7.14062 9.92157 7.40752 8.82483 8.19552 8.08724C9.61138 6.86999 12.527 7.05077 12.527 7.05077C14.9901 7.06041 16.1696 7.76425 16.4441 8.00047C17.3516 8.73805 17.8142 10.5025 17.4761 13.0888ZM13.9429 11.1412C13.953 11.3485 13.6251 11.363 13.6149 11.1557C13.587 10.6254 13.3252 10.3675 12.7863 10.3386C12.5677 10.3265 12.588 10.0156 12.8041 10.0276C13.5133 10.0638 13.9073 10.4494 13.9429 11.1412ZM14.4589 11.4136C14.4843 10.3916 13.8107 9.59134 12.5321 9.50215C12.316 9.48769 12.3389 9.17675 12.555 9.19121C14.0293 9.29245 14.8147 10.2542 14.7868 11.4208C14.7842 11.6281 14.4538 11.6185 14.4589 11.4136ZM15.6536 11.7366C15.6561 11.9439 15.3257 11.9463 15.3257 11.739C15.3104 9.77453 13.9301 8.70431 12.255 8.69226C12.0389 8.68985 12.0389 8.38131 12.255 8.38131C14.1284 8.39337 15.6358 9.62026 15.6536 11.7366ZM15.3663 14.1012V14.106C15.0918 14.564 14.5783 15.0702 14.0496 14.9087L14.0445 14.9015C13.5082 14.7593 12.2448 14.1422 11.4467 13.5396C11.0349 13.2311 10.6587 12.8671 10.3689 12.5176C10.1071 12.2066 9.8427 11.8378 9.58596 11.3943C9.04453 10.4663 8.92506 10.0517 8.92506 10.0517C8.75475 9.55036 9.28602 9.06346 9.77153 8.80314H9.77661C10.0105 8.68744 10.2342 8.726 10.3841 8.89714C10.3841 8.89714 10.6993 9.25388 10.8341 9.42984C10.9612 9.59375 11.1315 9.85649 11.2204 10.0035C11.3755 10.2663 11.2789 10.5338 11.1264 10.6447L10.8213 10.8761C10.6663 10.9942 10.6866 11.2135 10.6866 11.2135C10.6866 11.2135 11.1391 12.8358 12.8295 13.2455C12.8295 13.2455 13.0608 13.2648 13.1854 13.1178L13.4294 12.8285C13.5463 12.6839 13.8285 12.5923 14.1055 12.7393C14.4792 12.9394 14.9545 13.2503 15.2697 13.5324C15.4477 13.6698 15.4884 13.8795 15.3663 14.1012Z" fill="white"/>
</g>
</svg>
