<svg width="24" height="24" viewBox="0 0 24 24" fill="none" xmlns="http://www.w3.org/2000/svg">
<g id="Frame" clip-path="url(#clip0_2009_521)">
<g id="black">
<g id="whatsapp">
<path id="Vector" fill-rule="evenodd" clip-rule="evenodd" d="M12 24C18.6274 24 24 18.6274 24 12C24 5.37258 18.6274 0 12 0C5.37258 0 0 5.37258 0 12C0 18.6274 5.37258 24 12 24Z" fill="#AF2BBF"/>
<path id="Vector_2" fill-rule="evenodd" clip-rule="evenodd" d="M12.1142 17.9193C11.0399 17.9193 10.0307 17.6448 9.15267 17.1629L5.76074 18.2407L6.86647 14.979C6.30875 14.0629 5.98746 12.9885 5.98746 11.84C5.98746 8.48249 8.73043 5.76074 12.1143 5.76074C15.4978 5.76074 18.2407 8.48249 18.2407 11.84C18.2407 15.1976 15.4979 17.9193 12.1142 17.9193ZM12.1142 6.72891C9.27372 6.72891 6.96326 9.02177 6.96326 11.84C6.96326 12.9584 7.32781 13.9941 7.94433 14.8368L7.30091 16.7348L9.28024 16.1057C10.0937 16.6397 11.0679 16.9511 12.1142 16.9511C14.9542 16.9511 17.2651 14.6584 17.2651 11.8402C17.2651 9.02191 14.9542 6.72891 12.1142 6.72891ZM15.2078 13.2401C15.1701 13.1782 15.07 13.1407 14.9201 13.0663C14.7698 12.9918 14.0312 12.6311 13.8938 12.5816C13.756 12.532 13.6557 12.5069 13.5558 12.6561C13.4558 12.8053 13.1679 13.1407 13.0801 13.2401C12.9925 13.3397 12.905 13.3522 12.7548 13.2776C12.6048 13.2031 12.1208 13.0457 11.547 12.5381C11.1007 12.1432 10.7992 11.6556 10.7117 11.5063C10.6241 11.3572 10.7024 11.2766 10.7776 11.2024C10.8451 11.1356 10.9277 11.0284 11.0029 10.9415C11.0781 10.8544 11.103 10.7924 11.1529 10.6928C11.2031 10.5934 11.178 10.5065 11.1405 10.4317C11.1029 10.3573 10.8024 9.624 10.6773 9.32559C10.5522 9.02745 10.4273 9.07709 10.3395 9.07709C10.2519 9.07709 10.1518 9.06461 10.0516 9.06461C9.95153 9.06461 9.78873 9.10192 9.65104 9.25098C9.51348 9.40019 9.12563 9.76072 9.12563 10.4939C9.12563 11.2271 9.66352 11.9356 9.73881 12.0349C9.81383 12.1341 10.7774 13.6878 12.304 14.2844C13.8311 14.881 13.8311 14.682 14.1065 14.6572C14.3815 14.6324 14.9947 14.2968 15.1202 13.9489C15.2451 13.6007 15.2451 13.3023 15.2078 13.2401Z" fill="white"/>
</g>
</g>
</g>
<defs>
<clipPath id="clip0_2009_521">
<rect width="24" height="24" fill="white"/>
</clipPath>
</defs>
</svg>
